<svg xmlns="http://www.w3.org/2000/svg" viewBox="0 0 64 64">
  <rect width="64" height="64" rx="16" fill="#f1e5cc" />
  <path d="M16 36c0-8 7-14 16-14 7 0 13 4 16 10 1 2 0 5-2 6l-9 5H24c-5 0-8-3-8-7Z" fill="#f4f0e8" />
  <circle cx="24" cy="23" r="7" fill="#e7b3b0" />
  <circle cx="36" cy="23" r="7" fill="#e7b3b0" />
  <circle cx="38" cy="31" r="2" fill="#2c1b12" />
  <circle cx="45" cy="35" r="2" fill="#df8396" />
  <path d="M12 41c4 3 8 4 12 4" fill="none" stroke="#df8396" stroke-linecap="round" stroke-width="3" />
  <path d="M44 14l12 4-6 12-13-2Z" fill="#f4cf59" />
  <circle cx="49" cy="20" r="2" fill="#c8882f" />
  <circle cx="53" cy="24" r="1.8" fill="#c8882f" />
</svg>
